#!OML:ASF H:\ManfredETheater\Project 1\Capture day 1\Session 1\subject.ASF
:FULLY-SPECIFIED
:DEGREES
76
root 1.34543 14.936 0.110711 -193.79 -23.635 -176.258
lowerback 23.6633 -5.05133 -5.26236
upperback 1.98863 -8.46103 -0.547486
thorax -10.2628 -3.92118 5.04618
lowerneck -14.1603 -2.28416 -4.58243
upperneck 8.9251 -2.7666 4.71006
head 5.12248 -1.19594 1.98138
rclavicle -6.56859e-014 2.38542e-015
rhumerus -80.549 -32.7987 2.73033
rradius 53.784
rwrist -18.9096
rhand -32.8473 -10.4355
rfingers 7.12502
rthumb -6.06683 -40.3287
lclavicle -6.56859e-014 2.38542e-015
lhumerus -32.9836 17.5132 31.8525
lradius 100.853
lwrist 16.7342
lhand -30.8021 1.32217
lfingers 7.12502
lthumb -4.09203 31.2626
rfemur -41.0877 -15.7193 14.2426
rtibia 94.4705
rfoot -4.57665 -17.4953
rtoes -9.48961
lfemur -41.7582 1.17472 -21.3248
ltibia 78.4974
lfoot -15.1973 -9.38656
ltoes 10.8988
77
root 1.3884 14.8705 -0.387229 -193.996 -24.1749 -176.691
lowerback 23.826 -5.23733 -5.82985
upperback 2.07421 -8.93042 -1.03325
thorax -10.2033 -4.13933 4.97416
lowerneck -13.9786 -2.05475 -4.47876
upperneck 9.41563 -2.5581 5.09111
head 5.24001 -1.06779 2.10436
rclavicle 6.83478e-014 1.51076e-014
rhumerus -80.8614 -32.1464 6.90343
rradius 55.8412
rwrist -20.2073
rhand -33.3806 -10.5718
rfingers 7.12502
rthumb -6.58161 -40.4495
lclavicle 6.83478e-014 1.51076e-014
lhumerus -31.095 18.8033 31.5591
lradius 100.356
lwrist 15.8998
lhand -31.8651 2.00555
lfingers 7.12502
lthumb -5.11843 31.9237
rfemur -42.6678 -14.8117 13.0099
rtibia 90.394
rfoot -4.44184 -17.0708
rtoes -12.6285
lfemur -40.5022 1.26723 -20.7992
ltibia 80.3741
lfoot -17.5636 -10.1718
ltoes 10.3087
78
root 1.42429 14.8313 -0.882994 -194.306 -24.5491 -176.861
lowerback 23.904 -5.46551 -6.0919
upperback 2.16632 -9.36192 -1.45344
thorax -10.1306 -4.35317 4.78529
lowerneck -13.8376 -1.79733 -4.30557
upperneck 9.96106 -2.31903 5.37511
head 5.37706 -0.928539 2.18863
rclavicle -1.97993e-014 -3.26007e-014
rhumerus -80.445 -31.6147 10.4037
rradius 57.9845
rwrist -21.7506
rhand -33.8558 -10.6021
rfingers 7.12502
rthumb -7.04032 -40.465
lclavicle -1.97993e-014 -3.26007e-014
lhumerus -29.7069 19.4506 31.6451
lradius 99.9951
lwrist 15.4846
lhand -32.7554 2.57473
lfingers 7.12502
lthumb -5.97802 32.4704
rfemur -43.5648 -13.814 12.0276
rtibia 85.4585
rfoot -3.84248 -16.3803
rtoes -15.9856
lfemur -38.827 1.5266 -19.9401
ltibia 81.724
lfoot -20.0316 -10.9361
ltoes 10.0143
79
root 1.45475 14.8117 -1.37786 -194.715 -24.8407 -176.823
lowerback 23.9283 -5.73305 -6.13302
upperback 2.26775 -9.7727 -1.803
thorax -10.046 -4.56603 4.54079
lowerneck -13.7399 -1.52319 -4.06959
upperneck 10.5206 -2.05325 5.51876
head 5.52185 -0.782802 2.22121
rclavicle -1.50207e-014 -3.97569e-015
rhumerus -79.3967 -31.2665 13.3809
rradius 60.2
rwrist -23.531
rhand -34.3031 -10.4961
rfingers 7.12502
rthumb -7.47215 -40.3441
lclavicle -1.50207e-014 -3.97569e-015
lhumerus -28.8346 19.4434 32.1044
lradius 99.7473
lwrist 15.4311
lhand -33.3734 2.94569
lfingers 7.12502
lthumb -6.57472 32.8236
rfemur -43.8026 -12.8112 11.2142
rtibia 79.8523
rfoot -2.73547 -15.4605
rtoes -19.4377
lfemur -36.7917 1.81847 -18.8236
ltibia 82.6268
lfoot -22.5412 -11.6372
ltoes 9.89292
80
root 1.48134 14.804 -1.87331 -195.196 -25.1189 -176.665
lowerback 23.9216 -6.02116 -6.06606
upperback 2.37993 -10.1686 -2.07807
thorax -9.94227 -4.77586 4.31046
lowerneck -13.7113 -1.24564 -3.79237
upperneck 11.077 -1.7663 5.50099
head 5.67466 -0.634784 2.19827
rclavicle 5.76476e-015 -7.95139e-015
rhumerus -77.8178 -31.1506 16.0083
rradius 62.445
rwrist -25.3716
rhand -34.6224 -10.2692
rfingers 7.12502
rthumb -7.78032 -40.106
lclavicle 5.76476e-015 -7.95139e-015
lhumerus -28.4548 18.8505 32.9684
lradius 99.5684
lwrist 15.5626
lhand -33.5873 3.07524
lfingers 7.12502
lthumb -6.78123 32.9466
rfemur -43.455 -11.842 10.4652
rtibia 73.7886
rfoot -1.12383 -14.3908
rtoes -22.8816
lfemur -34.4992 2.02768 -17.5616
ltibia 83.1914
lfoot -24.9973 -12.2264
ltoes 9.7129
81
root 1.50532 14.801 -2.37059 -195.714 -25.4393 -176.437
lowerback 23.8853 -6.31482 -5.96099
upperback 2.50258 -10.5471 -2.27105
thorax -9.80675 -4.97892 4.13887
lowerneck -13.7536 -0.981616 -3.48238
upperneck 11.5979 -1.47147 5.30334
head 5.82744 -0.492605 2.11393
rclavicle -8.7018e-014 -1.59028e-014
rhumerus -75.8046 -31.2934 18.4304
rradius 64.6619
rwrist -27.0644
rhand -34.7736 -9.96149
rfingers 7.12502
rthumb -7.92629 -39.7929
lclavicle -8.7018e-014 -1.59028e-014
lhumerus -28.5097 17.7772 34.2996
lradius 99.4039
lwrist 15.6552
lhand -33.3759 3.0039
lfingers 7.12502
lthumb -6.57707 32.8818
rfemur -42.6308 -10.9134 9.71981
rtibia 67.4926
rfoot 0.935939 -13.2942
rtoes -26.3561
lfemur -32.0845 2.0531 -16.2355
ltibia 83.5468
lfoot -27.275 -12.682
ltoes 9.29609
82
root 1.52725 14.7975 -2.86975 -196.236 -25.8121 -176.131
lowerback 23.8018 -6.60579 -5.81617
upperback 2.62211 -10.893 -2.36723
thorax -9.64282 -5.16631 4.03408
lowerneck -13.847 -0.741941 -3.15497
upperneck 12.0632 -1.18105 4.94732
head 5.97241 -0.362262 1.97611
rclavicle 2.29845e-014 4.77083e-014
rhumerus -73.4398 -31.6982 20.7459
rradius 66.7962
rwrist -28.4349
rhand -34.7471 -9.6375
rfingers 7.12502
rthumb -7.90065 -39.4699
lclavicle 2.29845e-014 4.77083e-014
lhumerus -28.9344 16.3674 36.1397
lradius 99.189
lwrist 15.4719
lhand -32.6967 2.80069
lfingers 7.12502
lthumb -5.92142 32.6979
rfemur -41.4724 -9.98908 8.98835
rtibia 61.1824
rfoot 3.35313 -12.2937
rtoes -29.7342
lfemur -29.716 1.84473 -14.8628
ltibia 83.8339
lfoot -29.2495 -13.004
ltoes 8.38807
83
root 1.54823 14.791 -3.37072 -196.74 -26.248 -175.745
lowerback 23.6463 -6.88371 -5.63794
upperback 2.73601 -11.1923 -2.3623
thorax -9.43786 -5.33183 3.99557
lowerneck -13.9911 -0.538132 -2.83733
upperneck 12.4793 -0.91379 4.48931
head 6.11345 -0.250778 1.80537
rclavicle 3.6477e-014 4.45278e-014
rhumerus -70.8024 -32.3521 23.0027
rradius 68.8075
rwrist -29.3878
rhand -34.5828 -9.35328
rfingers 7.12502
rthumb -7.74206 -39.1915
lclavicle 3.6477e-014 4.45278e-014
lhumerus -29.6632 14.7666 38.4973
lradius 98.8694
lwrist 14.8748
lhand -31.6339 2.47939
lfingers 7.12502
lthumb -4.89528 32.4028
rfemur -40.0923 -9.0247 8.27326
rtibia 55.0727
rfoot 5.88981 -11.5219
rtoes -32.8566
lfemur -27.5301 1.37953 -13.4563
ltibia 84.1742
lfoot -30.8102 -13.212
ltoes 6.70426
84
root 1.56938 14.7805 -3.87242 -197.196 -26.7487 -175.293
lowerback 23.4074 -7.13952 -5.43329
upperback 2.83042 -11.4372 -2.26822
thorax -9.20214 -5.47048 4.01029
lowerneck -14.1517 -0.379836 -2.54201
upperneck 12.8461 -0.690427 3.98247
head 6.24575 -0.1661 1.61847
rclavicle 2.18663e-015 -1.27222e-014
rhumerus -67.9569 -33.2242 25.2056
rradius 70.6736
rwrist -29.9114
rhand -34.3214 -9.14526
rfingers 7.12502
rthumb -7.48976 -38.9927
lclavicle 2.18663e-015 -1.27222e-014
lhumerus -30.6147 13.1375 41.3466
lradius 98.3777
lwrist 13.7977
lhand -30.2386 2.02267
lfingers 7.12502
lthumb -3.54783 31.9729
rfemur -38.6094 -7.98252 7.56974
rtibia 49.3742
rfoot 8.38028 -11.0558
rtoes -35.5584
lfemur -25.6441 0.659001 -12.0335
ltibia 84.6577
lfoot -31.8375 -13.3698
ltoes 4.12685
